<svg xmlns="http://www.w3.org/2000/svg" width="1200" height="630" viewBox="0 0 1200 630" role="img" aria-labelledby="title desc">
  <title id="title">QuarterReady — MTD, minus the fog</title>
  <desc id="desc">Free Making Tax Digital start-date and spreadsheet tools for UK marketplace sellers.</desc>
  <rect width="1200" height="630" fill="#fffdf8"/>
  <path d="M0 0h1200v98H0z" fill="#102d20"/>
  <path d="M930 98h270v532H790c113-94 168-198 165-313-2-86-10-159-25-219z" fill="#dff5e5"/>
  <g fill="#f4c85b" opacity=".55">
    <circle cx="1028" cy="174" r="6"/><circle cx="1064" cy="174" r="6"/><circle cx="1100" cy="174" r="6"/><circle cx="1136" cy="174" r="6"/>
    <circle cx="1028" cy="210" r="6"/><circle cx="1064" cy="210" r="6"/><circle cx="1100" cy="210" r="6"/><circle cx="1136" cy="210" r="6"/>
    <circle cx="1028" cy="246" r="6"/><circle cx="1064" cy="246" r="6"/><circle cx="1100" cy="246" r="6"/><circle cx="1136" cy="246" r="6"/>
  </g>
  <g transform="translate(58 22)">
    <path d="M24 0h16c13 0 24 11 24 24v16c0 13-11 24-24 24H24C11 64 0 53 0 40V24C0 11 11 0 24 0z" fill="#b9ef79" stroke="#fffdf8" stroke-width="3"/>
    <text x="32" y="46" text-anchor="middle" font-family="Georgia,serif" font-size="39" font-weight="700" fill="#102d20">Q</text>
    <text x="86" y="30" font-family="Arial,sans-serif" font-size="24" font-weight="700" fill="#fffdf8">QuarterReady</text>
    <text x="86" y="54" font-family="Arial,sans-serif" font-size="15" font-weight="600" fill="#b9ef79">MTD, minus the fog</text>
  </g>
  <g transform="translate(62 154)">
    <text x="0" y="0" font-family="Arial,sans-serif" font-size="17" font-weight="800" letter-spacing="2.5" fill="#173f2b">FOR UK MARKETPLACE SOLE TRADERS</text>
    <text x="0" y="88" font-family="Georgia,serif" font-size="73" fill="#18231c">Know your MTD</text>
    <text x="0" y="166" font-family="Georgia,serif" font-size="73" fill="#18231c">start date.</text>
    <path d="M8 187h352" stroke="#f4c85b" stroke-width="12" stroke-linecap="round"/>
    <text x="0" y="240" font-family="Arial,sans-serif" font-size="26" fill="#4d5a51">Free threshold checker + spreadsheet route planner.</text>
  </g>
  <g transform="translate(62 500)" font-family="Arial,sans-serif">
    <rect width="790" height="78" rx="18" fill="#173f2b"/>
    <text x="28" y="33" font-size="17" font-weight="700" fill="#b9ef79">APRIL 2026</text>
    <text x="28" y="60" font-size="25" font-weight="800" fill="#fffdf8">&gt; £50k</text>
    <path d="M188 16v46" stroke="#ffffff" stroke-opacity=".23"/>
    <text x="218" y="33" font-size="17" font-weight="700" fill="#b9ef79">APRIL 2027</text>
    <text x="218" y="60" font-size="25" font-weight="800" fill="#fffdf8">&gt; £30k</text>
    <path d="M378 16v46" stroke="#ffffff" stroke-opacity=".23"/>
    <text x="408" y="33" font-size="17" font-weight="700" fill="#b9ef79">APRIL 2028</text>
    <text x="408" y="60" font-size="25" font-weight="800" fill="#fffdf8">&gt; £20k</text>
    <path d="M568 16v46" stroke="#ffffff" stroke-opacity=".23"/>
    <text x="598" y="33" font-size="15" font-weight="700" fill="#b9ef79">AMAZON · ETSY</text>
    <text x="598" y="57" font-size="15" font-weight="700" fill="#fffdf8">EBAY · TIKTOK SHOP</text>
  </g>
  <g transform="translate(930 336)">
    <path d="M0 0h174c20 0 36 16 36 36v174c0 20-16 36-36 36H36c-20 0-36-16-36-36z" fill="#b9ef79" stroke="#102d20" stroke-width="5"/>
    <text x="105" y="168" text-anchor="middle" font-family="Georgia,serif" font-size="142" font-weight="700" fill="#102d20">Q</text>
  </g>
</svg>
